<svg width="14" height="18" viewBox="0 0 14 18" fill="none" xmlns="http://www.w3.org/2000/svg">
<path d="M9.83553 7.12979C11.0289 6.04174 12.6428 4.57021 12.7899 1.05469H13.8555V0H0.144531V1.05469H1.21008C1.35718 4.57021 2.97106 6.04174 4.16447 7.12979C4.96502 7.85967 5.41797 8.3064 5.41797 9C5.41797 9.6936 4.96502 10.1403 4.16447 10.8702C2.97106 11.9583 1.35718 13.4298 1.21008 16.9453H0.144531V18H13.8555V16.9453H12.7899C12.6428 13.4298 11.0289 11.9583 9.83553 10.8702C9.03498 10.1403 8.58203 9.6936 8.58203 9C8.58203 8.3064 9.03498 7.85967 9.83553 7.12979ZM6.47266 12.9529C6.30978 12.9865 6.14887 13.0354 5.99182 13.1004L2.76177 14.437C3.28926 13.0958 4.13884 12.3208 4.87505 11.6496C5.69665 10.9005 6.47266 10.193 6.47266 9V12.9529ZM9.12495 11.6496C9.86116 12.3208 10.7107 13.0958 11.2382 14.4369L8.00818 13.1003C7.85113 13.0354 7.69022 12.9865 7.52734 12.9529V9C7.52734 10.193 8.30335 10.9005 9.12495 11.6496ZM2.74325 3.51562C2.48826 2.85121 2.31216 2.04898 2.26607 1.05469H11.7339C11.6878 2.04898 11.5117 2.85121 11.2567 3.51562H2.74325Z" fill="#3C6A9E"/>
</svg>
