<svg width="18" height="14" viewBox="0 0 18 14" fill="none" xmlns="http://www.w3.org/2000/svg">
<path d="M17.996 3.84502C17.9908 3.75146 17.9522 3.66286 17.8872 3.59535V3.59341L15.1478 0.853985C15.0743 0.78002 14.9743 0.738452 14.87 0.738525H3.08378C2.97878 0.738636 2.87825 0.780938 2.80477 0.855929L0.11113 3.59535C0.0806048 3.62768 0.05584 3.66499 0.037936 3.70571C0.0324694 3.71745 0.0297177 3.7296 0.0254252 3.7417C0.0137949 3.77516 0.00682407 3.81006 0.00469614 3.84542C0.00469614 3.85364 0 3.86069 0 3.86931V5.04334C0 5.04881 0.00275164 5.0535 0.00311853 5.0586C0.00399905 5.10502 0.0132813 5.15091 0.0305249 5.19402C0.0305249 5.19677 0.0336434 5.19912 0.0348175 5.20184C0.0526114 5.24095 0.0768259 5.27679 0.106434 5.3079C0.115752 5.31715 0.125548 5.32592 0.135784 5.33414C0.160659 5.35611 0.188286 5.37482 0.217967 5.38972C0.229891 5.39614 0.242181 5.40186 0.254765 5.40693C0.297874 5.42424 0.343735 5.43367 0.390183 5.4347H1.56422V12.8703C1.56422 13.0864 1.73944 13.2616 1.95557 13.2616H2.34693C2.56306 13.2616 2.73829 13.0864 2.73829 12.8703V5.43466H3.91232V9.73944C3.91232 9.95557 4.08755 10.1308 4.30368 10.1308H4.69504C4.91117 10.1308 5.08639 9.95557 5.08639 9.73944V5.43466H12.9133V7.78273V9.73944C12.9133 9.95557 13.0885 10.1308 13.3046 10.1308H13.696C13.9121 10.1308 14.0873 9.95557 14.0873 9.73944V5.43466H15.2614V10.9135V12.8702C15.2614 13.0863 15.4366 13.2615 15.6527 13.2615H16.0441C16.2602 13.2615 16.4355 13.0863 16.4355 12.8702V5.43466H17.6095C17.6563 5.43375 17.7026 5.42435 17.7461 5.40689C17.7588 5.40172 17.7712 5.39585 17.7832 5.38928C17.8127 5.37446 17.8403 5.35593 17.865 5.3341C17.8753 5.32577 17.8851 5.31686 17.8944 5.3075C17.9234 5.2769 17.9472 5.24172 17.9648 5.20341C17.9648 5.19989 17.9687 5.19754 17.9703 5.19402C17.9874 5.15077 17.9965 5.10476 17.9973 5.05824C17.9973 5.05314 18 5.04925 18 5.04415V3.86934C18.0007 3.86069 17.9964 3.85364 17.996 3.84502Z" fill="#3C6A9E"/>
</svg>
